STARTFONT 2.1
COMMENT
COMMENT Converted from OpenType font "CircularStd-Bold.otf" by "otf2bdf 3.0".
COMMENT
FONT -FreeType-Circular Std Bold-Medium-R-Normal--18-130-100-100-P-95-ISO10646-1
SIZE 13 100 100
FONTBOUNDINGBOX 29 21 -1 -4
STARTPROPERTIES 19
FOUNDRY "FreeType"
FAMILY_NAME "Circular Std Bold"
WEIGHT_NAME "Medium"
SLANT "R"
SETWIDTH_NAME "Normal"
ADD_STYLE_NAME ""
PIXEL_SIZE 18
POINT_SIZE 130
RESOLUTION_X 100
RESOLUTION_Y 100
SPACING "P"
AVERAGE_WIDTH 95
CHARSET_REGISTRY "ISO10646"
CHARSET_ENCODING "1"
FONT_ASCENT 17
FONT_DESCENT 4
COPYRIGHT "Generated in 2013 by FontLab Studio. Copyright info pending."
_OTF_FONTFILE "CircularStd-Bold.otf"
_OTF_PSNAME "CircularStd-Bold"
ENDPROPERTIES
CHARS 332
STARTCHAR 0000
ENCODING 0
SWIDTH 0 0
DWIDTH 0 0
BBX 0 0 0 0
BITMAP
ENDCHAR
STARTCHAR 000D
ENCODING 13
SWIDTH 221 0
DWIDTH 4 0
BBX 0 0 0 0
BITMAP
ENDCHAR
STARTCHAR 0020
ENCODING 32
SWIDTH 221 0
DWIDTH 4 0
BBX 0 0 0 0
BITMAP
ENDCHAR
STARTCHAR 0021
ENCODING 33
SWIDTH 332 0
DWIDTH 6 0
BBX 2 13 2 0
BITMAP
C0
C0
C0
C0
C0
C0
C0
C0
C0
00
C0
C0
C0
ENDCHAR
STARTCHAR 0022
ENCODING 34
SWIDTH 387 0
DWIDTH 7 0
BBX 6 5 1 7
BITMAP
D8
DC
D8
D8
C8
ENDCHAR
STARTCHAR 0023
ENCODING 35
SWIDTH 720 0
DWIDTH 13 0
BBX 12 12 1 0
BITMAP
0CC0
08C0
1880
7FF0
7FF0
1980
3180
FFE0
FFE0
3300
3300
6300
ENDCHAR
STARTCHAR 0024
ENCODING 36
SWIDTH 609 0
DWIDTH 11 0
BBX 9 16 1 -2
BITMAP
0C00
0C00
3E00
7F00
E380
E200
F000
7E00
3F00
0380
C380
E380
7F00
3E00
0C00
0C00
ENDCHAR
STARTCHAR 0025
ENCODING 37
SWIDTH 830 0
DWIDTH 15 0
BBX 14 12 1 0
BITMAP
7070
F860
CCC0
CDC0
F980
7300
0670
06F8
0CCC
18CC
18F8
3070
ENDCHAR
STARTCHAR 0026
ENCODING 38
SWIDTH 720 0
DWIDTH 13 0
BBX 11 13 1 0
BITMAP
1C00
7E00
6700
6300
7700
3E00
3C20
7E60
E7C0
E3C0
E7C0
7EE0
3CE0
ENDCHAR
STARTCHAR 0027
ENCODING 39
SWIDTH 221 0
DWIDTH 4 0
BBX 2 5 1 7
BITMAP
C0
C0
C0
C0
C0
ENDCHAR
STARTCHAR 0028
ENCODING 40
SWIDTH 332 0
DWIDTH 6 0
BBX 5 18 1 -3
BITMAP
10
38
30
60
60
C0
C0
C0
C0
C0
C0
C0
C0
60
60
30
38
10
ENDCHAR
STARTCHAR 0029
ENCODING 41
SWIDTH 332 0
DWIDTH 6 0
BBX 5 18 0 -3
BITMAP
40
E0
60
30
30
18
18
18
18
18
18
18
18
30
30
60
E0
40
ENDCHAR
STARTCHAR 002A
ENCODING 42
SWIDTH 443 0
DWIDTH 8 0
BBX 6 7 1 6
BITMAP
30
30
FC
FC
78
7C
48
ENDCHAR
STARTCHAR 002B
ENCODING 43
SWIDTH 609 0
DWIDTH 11 0
BBX 9 9 1 1
BITMAP
1800
1800
1800
1800
FF80
FF80
1800
1800
1800
ENDCHAR
STARTCHAR 002C
ENCODING 44
SWIDTH 332 0
DWIDTH 6 0
BBX 4 6 1 -3
BITMAP
E0
E0
F0
20
60
C0
ENDCHAR
STARTCHAR 002D
ENCODING 45
SWIDTH 387 0
DWIDTH 7 0
BBX 5 2 1 4
BITMAP
F8
F8
ENDCHAR
STARTCHAR 002E
ENCODING 46
SWIDTH 332 0
DWIDTH 6 0
BBX 3 3 1 0
BITMAP
60
E0
60
ENDCHAR
STARTCHAR 002F
ENCODING 47
SWIDTH 498 0
DWIDTH 9 0
BBX 8 13 0 0
BITMAP
03
03
06
06
0C
0C
18
18
30
30
60
60
C0
ENDCHAR
STARTCHAR 0030
ENCODING 48
SWIDTH 609 0
DWIDTH 11 0
BBX 10 12 1 0
BITMAP
3E00
7F00
F380
E180
C180
C1C0
C1C0
C180
E180
E380
7F00
3E00
ENDCHAR
STARTCHAR 0031
ENCODING 49
SWIDTH 387 0
DWIDTH 7 0
BBX 5 12 1 0
BITMAP
18
38
F8
F8
38
38
38
38
38
38
38
38
ENDCHAR
STARTCHAR 0032
ENCODING 50
SWIDTH 553 0
DWIDTH 10 0
BBX 8 12 1 0
BITMAP
3C
7E
E7
C3
C3
07
1E
3C
70
E0
FF
FF
ENDCHAR
STARTCHAR 0033
ENCODING 51
SWIDTH 553 0
DWIDTH 10 0
BBX 9 12 0 0
BITMAP
7F80
7F80
0700
0E00
1E00
1F80
0380
0180
E180
7380
7F00
1E00
ENDCHAR
STARTCHAR 0034
ENCODING 52
SWIDTH 609 0
DWIDTH 11 0
BBX 10 12 1 0
BITMAP
0F00
1F00
1F00
3700
7700
E700
C700
FFC0
FFC0
0700
0700
0700
ENDCHAR
STARTCHAR 0035
ENCODING 53
SWIDTH 553 0
DWIDTH 10 0
BBX 8 12 1 0
BITMAP
7F
7F
60
E0
DE
FF
47
03
C3
E7
FF
3C
ENDCHAR
STARTCHAR 0036
ENCODING 54
SWIDTH 609 0
DWIDTH 11 0
BBX 9 12 1 0
BITMAP
0F80
3F00
7000
E000
DE00
FF00
E380
C180
C380
E380
7F00
3E00
ENDCHAR
STARTCHAR 0037
ENCODING 55
SWIDTH 498 0
DWIDTH 9 0
BBX 9 12 0 0
BITMAP
FF80
FF80
0380
0700
0E00
0C00
1C00
1800
3800
3800
3000
3000
ENDCHAR
STARTCHAR 0038
ENCODING 56
SWIDTH 553 0
DWIDTH 10 0
BBX 9 12 1 0
BITMAP
3C00
7F00
E700
C300
E700
7E00
7F00
C300
C380
E300
FF00
3E00
ENDCHAR
STARTCHAR 0039
ENCODING 57
SWIDTH 609 0
DWIDTH 11 0
BBX 9 12 1 0
BITMAP
3C00
7F00
E700
C380
C380
E780
FF80
3F80
0300
0700
FE00
F800
ENDCHAR
STARTCHAR 003A
ENCODING 58
SWIDTH 332 0
DWIDTH 6 0
BBX 3 9 1 0
BITMAP
60
E0
60
00
00
00
60
E0
60
ENDCHAR
STARTCHAR 003B
ENCODING 59
SWIDTH 332 0
DWIDTH 6 0
BBX 3 12 1 -3
BITMAP
60
E0
60
00
00
00
60
E0
E0
20
20
C0
ENDCHAR
STARTCHAR 003C
ENCODING 60
SWIDTH 498 0
DWIDTH 9 0
BBX 7 9 1 1
BITMAP
02
0E
3C
F0
C0
F0
3C
0E
02
ENDCHAR
STARTCHAR 003D
ENCODING 61
SWIDTH 609 0
DWIDTH 11 0
BBX 9 5 1 3
BITMAP
FF80
FF80
0000
FF80
FF80
ENDCHAR
STARTCHAR 003E
ENCODING 62
SWIDTH 498 0
DWIDTH 9 0
BBX 7 9 1 1
BITMAP
80
E0
F8
1E
06
1E
78
E0
80
ENDCHAR
STARTCHAR 003F
ENCODING 63
SWIDTH 553 0
DWIDTH 10 0
BBX 8 13 1 0
BITMAP
3C
FE
E7
C3
C7
0E
1C
18
38
00
10
38
38
ENDCHAR
STARTCHAR 0040
ENCODING 64
SWIDTH 830 0
DWIDTH 15 0
BBX 13 14 1 -1
BITMAP
0FC0
3FE0
7030
6218
CFD8
DCC8
D8C8
D898
D998
CFF0
6640
7000
3FE0
0FC0
ENDCHAR
STARTCHAR 0041
ENCODING 65
SWIDTH 720 0
DWIDTH 13 0
BBX 13 13 0 0
BITMAP
0700
0780
0F80
0D80
1DC0
1DC0
18C0
38E0
3FE0
7FF0
7070
6030
E038
ENDCHAR
STARTCHAR 0042
ENCODING 66
SWIDTH 609 0
DWIDTH 11 0
BBX 9 13 1 0
BITMAP
FE00
FF00
E380
E180
E380
FF00
FF00
E380
E180
E180
E380
FF80
FF00
ENDCHAR
STARTCHAR 0043
ENCODING 67
SWIDTH 775 0
DWIDTH 14 0
BBX 12 13 1 0
BITMAP
0F80
3FC0
79E0
E070
E020
C000
C000
C000
E020
E070
7DE0
3FC0
0F80
ENDCHAR
STARTCHAR 0044
ENCODING 68
SWIDTH 720 0
DWIDTH 13 0
BBX 11 13 1 0
BITMAP
FF00
FF80
E3C0
E0E0
E0E0
E060
E060
E060
E0E0
E0E0
E3C0
FF80
FF00
ENDCHAR
STARTCHAR 0045
ENCODING 69
SWIDTH 609 0
DWIDTH 11 0
BBX 8 13 1 0
BITMAP
FF
FF
E0
E0
E0
FF
FF
E0
E0
E0
E0
FF
FF
ENDCHAR
STARTCHAR 0046
ENCODING 70
SWIDTH 553 0
DWIDTH 10 0
BBX 9 13 1 0
BITMAP
FF80
FF80
E000
E000
E000
E000
FF00
FF00
E000
E000
E000
E000
E000
ENDCHAR
STARTCHAR 0047
ENCODING 71
SWIDTH 775 0
DWIDTH 14 0
BBX 12 13 1 0
BITMAP
0F80
3FE0
79E0
E070
E000
C000
C3F0
C3F0
E030
E070
78F0
3FF0
0F30
ENDCHAR
STARTCHAR 0048
ENCODING 72
SWIDTH 775 0
DWIDTH 14 0
BBX 11 13 1 0
BITMAP
E060
E060
E060
E060
E060
FFE0
FFE0
E060
E060
E060
E060
E060
E060
ENDCHAR
STARTCHAR 0049
ENCODING 73
SWIDTH 276 0
DWIDTH 5 0
BBX 3 13 1 0
BITMAP
E0
E0
E0
E0
E0
E0
E0
E0
E0
E0
E0
E0
E0
ENDCHAR
STARTCHAR 004A
ENCODING 74
SWIDTH 553 0
DWIDTH 10 0
BBX 9 13 0 0
BITMAP
0380
0380
0380
0380
0380
0380
0380
0380
E380
E380
7700
7F00
3E00
ENDCHAR
STARTCHAR 004B
ENCODING 75
SWIDTH 720 0
DWIDTH 13 0
BBX 11 13 1 0
BITMAP
E0E0
E1C0
E380
E700
EE00
FC00
FE00
FF00
F700
E380
E1C0
E1C0
E0E0
ENDCHAR
STARTCHAR 004C
ENCODING 76
SWIDTH 553 0
DWIDTH 10 0
BBX 9 13 1 0
BITMAP
E000
E000
E000
E000
E000
E000
E000
E000
E000
E000
E000
FF80
FF80
ENDCHAR
STARTCHAR 004D
ENCODING 77
SWIDTH 941 0
DWIDTH 17 0
BBX 15 13 1 0
BITMAP
F01E
F01E
F83E
F83E
FC3E
FC7E
EC6E
EEEE
E6CE
E7CE
E3CE
E38E
E38E
ENDCHAR
STARTCHAR 004E
ENCODING 78
SWIDTH 775 0
DWIDTH 14 0
BBX 11 13 1 0
BITMAP
F060
F060
F860
FC60
FC60
EE60
E760
E760
E3E0
E1E0
E1E0
E0E0
E0E0
ENDCHAR
STARTCHAR 004F
ENCODING 79
SWIDTH 830 0
DWIDTH 15 0
BBX 13 13 1 0
BITMAP
0F80
3FE0
79F0
E070
E038
C038
C038
C038
E038
E070
79F0
3FE0
0F80
ENDCHAR
STARTCHAR 0050
ENCODING 80
SWIDTH 609 0
DWIDTH 11 0
BBX 9 13 1 0
BITMAP
FE00
FF80
E380
E180
E180
E380
FF80
FE00
E000
E000
E000
E000
E000
ENDCHAR
STARTCHAR 0051
ENCODING 81
SWIDTH 830 0
DWIDTH 15 0
BBX 13 14 1 -1
BITMAP
0F80
3FE0
79F0
E070
E038
C038
C038
C138
E3B8
E1F0
79F0
3FF0
0FB8
0010
ENDCHAR
STARTCHAR 0052
ENCODING 82
SWIDTH 609 0
DWIDTH 11 0
BBX 10 13 1 0
BITMAP
FF00
FF80
E380
E1C0
E1C0
E380
FF80
FE00
E600
E700
E300
E380
E180
ENDCHAR
STARTCHAR 0053
ENCODING 83
SWIDTH 609 0
DWIDTH 11 0
BBX 9 13 1 0
BITMAP
3E00
7F00
E380
E100
E000
FC00
7F00
0F80
0380
C180
E380
7F00
3E00
ENDCHAR
STARTCHAR 0054
ENCODING 84
SWIDTH 609 0
DWIDTH 11 0
BBX 11 13 0 0
BITMAP
FFE0
FFE0
0E00
0E00
0E00
0E00
0E00
0E00
0E00
0E00
0E00
0E00
0E00
ENDCHAR
STARTCHAR 0055
ENCODING 85
SWIDTH 720 0
DWIDTH 13 0
BBX 10 13 1 0
BITMAP
E0C0
E0C0
E0C0
E0C0
E0C0
E0C0
E0C0
E0C0
E0C0
E1C0
7BC0
7F80
1F00
ENDCHAR
STARTCHAR 0056
ENCODING 86
SWIDTH 664 0
DWIDTH 12 0
BBX 12 13 0 0
BITMAP
E070
6070
7060
70E0
30E0
38C0
19C0
1980
1D80
0F80
0F00
0F00
0700
ENDCHAR
STARTCHAR 0057
ENCODING 87
SWIDTH 1052 0
DWIDTH 19 0
BBX 18 13 0 0
BITMAP
E0E0C0
60E1C0
71E1C0
71F180
71B180
33B380
3B3B80
3B3B00
1F1B00
1E1F00
1E1E00
1E0E00
0E0E00
ENDCHAR
STARTCHAR 0058
ENCODING 88
SWIDTH 664 0
DWIDTH 12 0
BBX 10 13 1 0
BITMAP
E0C0
E1C0
7380
3380
3F00
1E00
1E00
1E00
3F00
3300
7380
E1C0
E1C0
ENDCHAR
STARTCHAR 0059
ENCODING 89
SWIDTH 664 0
DWIDTH 12 0
BBX 11 13 0 0
BITMAP
E060
70E0
31C0
39C0
1F80
1F00
0F00
0600
0600
0600
0600
0600
0600
ENDCHAR
STARTCHAR 005A
ENCODING 90
SWIDTH 664 0
DWIDTH 12 0
BBX 10 13 1 0
BITMAP
FFC0
FFC0
03C0
0780
0700
0E00
1C00
3800
7800
7000
E000
FFC0
FFC0
ENDCHAR
STARTCHAR 005B
ENCODING 91
SWIDTH 332 0
DWIDTH 6 0
BBX 5 18 1 -3
BITMAP
F8
F8
C0
C0
C0
C0
C0
C0
C0
C0
C0
C0
C0
C0
C0
C0
F8
F8
ENDCHAR
STARTCHAR 005C
ENCODING 92
SWIDTH 498 0
DWIDTH 9 0
BBX 8 13 0 0
BITMAP
C0
60
60
30
30
18
18
0C
0C
06
06
03
03
ENDCHAR
STARTCHAR 005D
ENCODING 93
SWIDTH 332 0
DWIDTH 6 0
BBX 4 18 0 -3
BITMAP
F0
F0
30
30
30
30
30
30
30
30
30
30
30
30
30
30
F0
F0
ENDCHAR
STARTCHAR 005E
ENCODING 94
SWIDTH 553 0
DWIDTH 10 0
BBX 8 7 1 6
BITMAP
18
38
3C
6C
66
C7
C3
ENDCHAR
STARTCHAR 005F
ENCODING 95
SWIDTH 498 0
DWIDTH 9 0
BBX 9 2 0 -2
BITMAP
FF80
FF80
ENDCHAR
STARTCHAR 0060
ENCODING 96
SWIDTH 276 0
DWIDTH 5 0
BBX 4 3 1 10
BITMAP
E0
60
30
ENDCHAR
STARTCHAR 0061
ENCODING 97
SWIDTH 553 0
DWIDTH 10 0
BBX 8 9 1 0
BITMAP
3C
FE
C7
07
7F
E7
C7
FF
7F
ENDCHAR
STARTCHAR 0062
ENCODING 98
SWIDTH 609 0
DWIDTH 11 0
BBX 9 13 1 0
BITMAP
E000
E000
E000
E000
FE00
FF80
F380
E180
E180
E180
E380
FF00
FE00
ENDCHAR
STARTCHAR 0063
ENCODING 99
SWIDTH 553 0
DWIDTH 10 0
BBX 8 9 1 0
BITMAP
3C
7F
E7
C2
C0
C2
E7
7F
3C
ENDCHAR
STARTCHAR 0064
ENCODING 100
SWIDTH 609 0
DWIDTH 11 0
BBX 9 13 1 0
BITMAP
0380
0380
0380
0380
3F80
7F80
E780
C380
C380
C380
E380
7F80
3F80
ENDCHAR
STARTCHAR 0065
ENCODING 101
SWIDTH 553 0
DWIDTH 10 0
BBX 8 9 1 0
BITMAP
3C
7E
C3
FF
FF
C0
E3
7F
3C
ENDCHAR
STARTCHAR 0066
ENCODING 102
SWIDTH 332 0
DWIDTH 6 0
BBX 6 13 0 0
BITMAP
1C
3C
30
30
FC
FC
30
30
30
30
30
30
30
ENDCHAR
STARTCHAR 0067
ENCODING 103
SWIDTH 609 0
DWIDTH 11 0
BBX 9 13 1 -4
BITMAP
3F80
7F80
E780
C380
C380
C380
E780
7F80
3F80
4380
E700
FF00
3C00
ENDCHAR
STARTCHAR 0068
ENCODING 104
SWIDTH 609 0
DWIDTH 11 0
BBX 8 13 1 0
BITMAP
E0
E0
E0
E0
FE
FF
E7
E3
E3
E3
E3
E3
E3
ENDCHAR
STARTCHAR 0069
ENCODING 105
SWIDTH 276 0
DWIDTH 5 0
BBX 3 13 1 0
BITMAP
E0
E0
40
00
E0
E0
E0
E0
E0
E0
E0
E0
E0
ENDCHAR
STARTCHAR 006A
ENCODING 106
SWIDTH 276 0
DWIDTH 5 0
BBX 4 17 0 -4
BITMAP
70
70
20
00
70
70
70
70
70
70
70
70
70
70
70
E0
E0
ENDCHAR
STARTCHAR 006B
ENCODING 107
SWIDTH 553 0
DWIDTH 10 0
BBX 9 13 1 0
BITMAP
E000
E000
E000
E000
E700
EE00
FE00
FC00
FC00
FE00
EE00
E700
E380
ENDCHAR
STARTCHAR 006C
ENCODING 108
SWIDTH 276 0
DWIDTH 5 0
BBX 3 13 1 0
BITMAP
E0
E0
E0
E0
E0
E0
E0
E0
E0
E0
E0
E0
E0
ENDCHAR
STARTCHAR 006D
ENCODING 109
SWIDTH 886 0
DWIDTH 16 0
BBX 14 9 1 0
BITMAP
FE70
FFF8
E39C
E30C
E30C
E30C
E30C
E30C
E30C
ENDCHAR
STARTCHAR 006E
ENCODING 110
SWIDTH 609 0
DWIDTH 11 0
BBX 8 9 1 0
BITMAP
FE
FF
E7
E3
E3
E3
E3
E3
E3
ENDCHAR
STARTCHAR 006F
ENCODING 111
SWIDTH 609 0
DWIDTH 11 0
BBX 9 9 1 0
BITMAP
3C00
7F00
E700
C380
C180
C380
E700
7F00
3C00
ENDCHAR
STARTCHAR 0070
ENCODING 112
SWIDTH 609 0
DWIDTH 11 0
BBX 9 13 1 -4
BITMAP
FE00
FF80
F380
E180
E180
E180
F380
FF00
FE00
E000
E000
E000
E000
ENDCHAR
STARTCHAR 0071
ENCODING 113
SWIDTH 609 0
DWIDTH 11 0
BBX 9 13 1 -4
BITMAP
3F80
7F80
E780
C380
C380
C380
E780
7F80
3F80
0380
0380
0380
0380
ENDCHAR
STARTCHAR 0072
ENCODING 114
SWIDTH 387 0
DWIDTH 7 0
BBX 6 9 1 0
BITMAP
FC
FC
F0
E0
E0
E0
E0
E0
E0
ENDCHAR
STARTCHAR 0073
ENCODING 115
SWIDTH 443 0
DWIDTH 8 0
BBX 7 9 1 0
BITMAP
78
FC
CE
E0
FC
1E
CE
FC
78
ENDCHAR
STARTCHAR 0074
ENCODING 116
SWIDTH 387 0
DWIDTH 7 0
BBX 6 12 0 0
BITMAP
30
30
30
FC
FC
30
30
30
30
30
3C
1C
ENDCHAR
STARTCHAR 0075
ENCODING 117
SWIDTH 609 0
DWIDTH 11 0
BBX 8 9 1 0
BITMAP
E3
E3
E3
E3
E3
E3
E7
7F
3B
ENDCHAR
STARTCHAR 0076
ENCODING 118
SWIDTH 553 0
DWIDTH 10 0
BBX 9 9 0 0
BITMAP
E180
6180
7380
3300
3300
3F00
1E00
1E00
0C00
ENDCHAR
STARTCHAR 0077
ENCODING 119
SWIDTH 830 0
DWIDTH 15 0
BBX 15 9 0 0
BITMAP
E38E
638C
67CC
76DC
36D8
3EF8
3C78
1C70
1C70
ENDCHAR
STARTCHAR 0078
ENCODING 120
SWIDTH 553 0
DWIDTH 10 0
BBX 8 9 1 0
BITMAP
C7
E6
7E
3C
38
3C
7E
E6
C7
ENDCHAR
STARTCHAR 0079
ENCODING 121
SWIDTH 553 0
DWIDTH 10 0
BBX 10 13 0 -4
BITMAP
E1C0
6180
7380
3300
3B00
1F00
1E00
0E00
0C00
1C00
1800
3800
3800
ENDCHAR
STARTCHAR 007A
ENCODING 122
SWIDTH 498 0
DWIDTH 9 0
BBX 7 9 1 0
BITMAP
FE
FE
0E
1C
38
70
E0
FE
FE
ENDCHAR
STARTCHAR 007B
ENCODING 123
SWIDTH 387 0
DWIDTH 7 0
BBX 6 18 1 -3
BITMAP
1C
3C
30
30
30
30
30
70
E0
E0
70
30
30
30
30
30
3C
1C
ENDCHAR
STARTCHAR 007C
ENCODING 124
SWIDTH 276 0
DWIDTH 5 0
BBX 2 18 1 -3
BITMAP
C0
C0
C0
C0
C0
C0
C0
C0
C0
C0
C0
C0
C0
C0
C0
C0
C0
C0
ENDCHAR
STARTCHAR 007D
ENCODING 125
SWIDTH 387 0
DWIDTH 7 0
BBX 6 18 0 -3
BITMAP
C0
F0
30
30
30
30
30
38
1C
1C
38
30
30
30
30
30
F0
C0
ENDCHAR
STARTCHAR 007E
ENCODING 126
SWIDTH 609 0
DWIDTH 11 0
BBX 9 3 1 4
BITMAP
7900
FF80
8F00
ENDCHAR
STARTCHAR 00A0
ENCODING 160
SWIDTH 221 0
DWIDTH 4 0
BBX 0 0 0 0
BITMAP
ENDCHAR
STARTCHAR 00A1
ENCODING 161
SWIDTH 276 0
DWIDTH 5 0
BBX 3 13 1 -4
BITMAP
60
E0
60
00
60
60
60
60
60
60
E0
E0
E0
ENDCHAR
STARTCHAR 00A2
ENCODING 162
SWIDTH 553 0
DWIDTH 10 0
BBX 8 12 1 0
BITMAP
18
18
7E
FF
C3
C0
C0
C3
FF
7E
18
18
ENDCHAR
STARTCHAR 00A3
ENCODING 163
SWIDTH 609 0
DWIDTH 11 0
BBX 9 12 1 0
BITMAP
1E00
3F00
7300
6300
6000
FE00
FE00
3000
3180
6180
FF80
FF00
ENDCHAR
STARTCHAR 00A4
ENCODING 164
SWIDTH 609 0
DWIDTH 11 0
BBX 9 9 1 0
BITMAP
4100
FF80
7F00
6300
C300
6300
7F00
FF80
4100
ENDCHAR
STARTCHAR 00A5
ENCODING 165
SWIDTH 609 0
DWIDTH 11 0
BBX 9 12 1 0
BITMAP
C180
E380
6300
7700
3600
FF80
FF80
1C00
FF80
FF80
1C00
1C00
ENDCHAR
STARTCHAR 00A6
ENCODING 166
SWIDTH 276 0
DWIDTH 5 0
BBX 2 18 1 -3
BITMAP
C0
C0
C0
C0
C0
C0
C0
00
00
00
00
C0
C0
C0
C0
C0
C0
C0
ENDCHAR
STARTCHAR 00A7
ENCODING 167
SWIDTH 553 0
DWIDTH 10 0
BBX 8 17 1 -4
BITMAP
3C
7E
E7
E2
F0
78
7E
EF
E3
F3
7E
1E
07
47
E7
7E
3C
ENDCHAR
STARTCHAR 00A8
ENCODING 168
SWIDTH 387 0
DWIDTH 7 0
BBX 6 3 1 10
BITMAP
88
DC
CC
ENDCHAR
STARTCHAR 00A9
ENCODING 169
SWIDTH 830 0
DWIDTH 15 0
BBX 13 13 1 0
BITMAP
0F80
3DE0
6030
C730
DF98
9898
9818
9898
DF98
C710
6030
39E0
0F80
ENDCHAR
STARTCHAR 00AA
ENCODING 170
SWIDTH 443 0
DWIDTH 8 0
BBX 6 7 1 5
BITMAP
78
F8
0C
7C
CC
DC
7C
ENDCHAR
STARTCHAR 00AB
ENCODING 171
SWIDTH 498 0
DWIDTH 9 0
BBX 8 7 1 2
BITMAP
33
66
EC
DC
CC
66
33
ENDCHAR
STARTCHAR 00AC
ENCODING 172
SWIDTH 609 0
DWIDTH 11 0
BBX 9 6 1 2
BITMAP
FF80
FF80
0180
0180
0180
0180
ENDCHAR
STARTCHAR 00AD
ENCODING 173
SWIDTH 387 0
DWIDTH 7 0
BBX 5 2 1 4
BITMAP
F8
F8
ENDCHAR
STARTCHAR 00AE
ENCODING 174
SWIDTH 830 0
DWIDTH 15 0
BBX 13 13 1 0
BITMAP
0F80
3DE0
6070
CF30
CD98
8C98
8F98
8F18
CD98
CD90
6030
39E0
0F80
ENDCHAR
STARTCHAR 00AF
ENCODING 175
SWIDTH 332 0
DWIDTH 6 0
BBX 6 2 0 10
BITMAP
FC
FC
ENDCHAR
STARTCHAR 00B0
ENCODING 176
SWIDTH 387 0
DWIDTH 7 0
BBX 6 6 0 6
BITMAP
38
7C
CC
CC
7C
38
ENDCHAR
STARTCHAR 00B1
ENCODING 177
SWIDTH 609 0
DWIDTH 11 0
BBX 9 9 1 1
BITMAP
1800
1800
FF80
FF80
1800
1800
0000
FF80
FF80
ENDCHAR
STARTCHAR 00B2
ENCODING 178
SWIDTH 387 0
DWIDTH 7 0
BBX 5 7 1 6
BITMAP
70
D8
D8
38
70
F8
F8
ENDCHAR
STARTCHAR 00B3
ENCODING 179
SWIDTH 387 0
DWIDTH 7 0
BBX 5 7 1 6
BITMAP
F8
18
30
38
08
D8
70
ENDCHAR
STARTCHAR 00B4
ENCODING 180
SWIDTH 276 0
DWIDTH 5 0
BBX 3 3 1 10
BITMAP
60
E0
C0
ENDCHAR
STARTCHAR 00B5
ENCODING 181
SWIDTH 609 0
DWIDTH 11 0
BBX 8 13 1 -4
BITMAP
E3
E3
E3
E3
E3
E3
E3
FF
FB
E0
E0
E0
E0
ENDCHAR
STARTCHAR 00B6
ENCODING 182
SWIDTH 664 0
DWIDTH 12 0
BBX 12 17 0 -4
BITMAP
3FF0
7FF0
7CC0
FCC0
7CC0
7CC0
3CC0
1CC0
0CC0
0CC0
0CC0
0CC0
0CC0
0CC0
0CC0
0CC0
0CC0
ENDCHAR
STARTCHAR 00B7
ENCODING 183
SWIDTH 276 0
DWIDTH 5 0
BBX 3 3 1 4
BITMAP
E0
E0
E0
ENDCHAR
STARTCHAR 00B8
ENCODING 184
SWIDTH 276 0
DWIDTH 5 0
BBX 4 4 1 -4
BITMAP
40
60
30
E0
ENDCHAR
STARTCHAR 00B9
ENCODING 185
SWIDTH 276 0
DWIDTH 5 0
BBX 3 7 1 6
BITMAP
60
E0
E0
60
60
60
60
ENDCHAR
STARTCHAR 00BA
ENCODING 186
SWIDTH 498 0
DWIDTH 9 0
BBX 7 7 1 5
BITMAP
38
7C
C6
C6
CC
7C
38
ENDCHAR
STARTCHAR 00BB
ENCODING 187
SWIDTH 498 0
DWIDTH 9 0
BBX 8 7 1 2
BITMAP
CC
EE
66
33
66
EE
CC
ENDCHAR
STARTCHAR 00BC
ENCODING 188
SWIDTH 830 0
DWIDTH 15 0
BBX 13 12 1 0
BITMAP
2060
60C0
E180
6180
6300
6670
6670
0CF0
19B0
3930
31F8
6030
ENDCHAR
STARTCHAR 00BD
ENCODING 189
SWIDTH 830 0
DWIDTH 15 0
BBX 13 12 1 0
BITMAP
2060
60C0
E180
6180
6300
6600
66F8
0CD8
1818
3870
30F8
60F8
ENDCHAR
STARTCHAR 00BE
ENCODING 190
SWIDTH 886 0
DWIDTH 16 0
BBX 14 12 1 0
BITMAP
F830
1870
3060
38C0
09C0
D998
7338
0678
06D8
0CFC
1818
1818
ENDCHAR
STARTCHAR 00BF
ENCODING 191
SWIDTH 498 0
DWIDTH 9 0
BBX 9 13 0 -4
BITMAP
0C00
1C00
0C00
0000
0C00
1C00
3800
7000
E380
E380
E300
7F00
3E00
ENDCHAR
STARTCHAR 00C0
ENCODING 192
SWIDTH 720 0
DWIDTH 13 0
BBX 13 16 0 0
BITMAP
0E00
0600
0000
0700
0780
0F80
0D80
1DC0
1DC0
18C0
38E0
3FE0
7FF0
7070
6030
E038
ENDCHAR
STARTCHAR 00C1
ENCODING 193
SWIDTH 720 0
DWIDTH 13 0
BBX 13 16 0 0
BITMAP
03C0
0300
0000
0700
0780
0F80
0D80
1DC0
1DC0
18C0
38E0
3FE0
7FF0
7070
6030
E038
ENDCHAR
STARTCHAR 00C2
ENCODING 194
SWIDTH 720 0
DWIDTH 13 0
BBX 13 16 0 0
BITMAP
0F00
0D80
0000
0700
0780
0F80
0D80
1DC0
1DC0
18C0
38E0
3FE0
7FF0
7070
6030
E038
ENDCHAR
STARTCHAR 00C3
ENCODING 195
SWIDTH 720 0
DWIDTH 13 0
BBX 13 17 0 0
BITMAP
0C80
0F80
1B80
0000
0700
0780
0F80
0D80
1DC0
1DC0
18C0
38E0
3FE0
7FF0
7070
6030
E038
ENDCHAR
STARTCHAR 00C4
ENCODING 196
SWIDTH 720 0
DWIDTH 13 0
BBX 13 17 0 0
BITMAP
1040
38E0
18C0
0000
0700
0780
0F80
0D80
1DC0
1DC0
18C0
38E0
3FE0
7FF0
7070
6030
E038
ENDCHAR
STARTCHAR 00C5
ENCODING 197
SWIDTH 720 0
DWIDTH 13 0
BBX 13 16 0 0
BITMAP
0700
0D80
0D80
0F00
0780
0F80
0D80
1DC0
1DC0
18C0
38E0
3FE0
7FF0
7070
6030
E038
ENDCHAR
STARTCHAR 00C6
ENCODING 198
SWIDTH 1052 0
DWIDTH 19 0
BBX 18 13 0 0
BITMAP
00FFC0
00FFC0
01F800
03B800
03B800
073FC0
0E3FC0
0E3800
1FF800
3FF800
383800
703FC0
F03FC0
ENDCHAR
STARTCHAR 00C7
ENCODING 199
SWIDTH 775 0
DWIDTH 14 0
BBX 12 17 1 -4
BITMAP
0F80
3FC0
79E0
E070
E020
C000
C000
C000
E020
E070
78E0
3FE0
1F80
0600
0700
0900
0F00
ENDCHAR
STARTCHAR 00C8
ENCODING 200
SWIDTH 609 0
DWIDTH 11 0
BBX 8 16 1 0
BITMAP
38
1C
00
FF
FF
E0
E0
E0
FF
FF
E0
E0
E0
E0
FF
FF
ENDCHAR
STARTCHAR 00C9
ENCODING 201
SWIDTH 609 0
DWIDTH 11 0
BBX 8 16 1 0
BITMAP
0E
1C
00
FF
FF
E0
E0
E0
FF
FF
E0
E0
E0
E0
FF
FF
ENDCHAR
STARTCHAR 00CA
ENCODING 202
SWIDTH 609 0
DWIDTH 11 0
BBX 8 16 1 0
BITMAP
3C
76
00
FF
FF
E0
E0
E0
FF
FF
E0
E0
E0
E0
FF
FF
ENDCHAR
STARTCHAR 00CB
ENCODING 203
SWIDTH 609 0
DWIDTH 11 0
BBX 8 17 1 0
BITMAP
22
77
77
00
FF
FF
E0
E0
E0
FF
FF
E0
E0
E0
E0
FF
FF
ENDCHAR
STARTCHAR 00CC
ENCODING 204
SWIDTH 276 0
DWIDTH 5 0
BBX 4 16 0 0
BITMAP
E0
70
00
70
70
70
70
70
70
70
70
70
70
70
70
70
ENDCHAR
STARTCHAR 00CD
ENCODING 205
SWIDTH 276 0
DWIDTH 5 0
BBX 5 16 1 0
BITMAP
38
60
00
E0
E0
E0
E0
E0
E0
E0
E0
E0
E0
E0
E0
E0
ENDCHAR
STARTCHAR 00CE
ENCODING 206
SWIDTH 276 0
DWIDTH 5 0
BBX 6 16 0 0
BITMAP
78
DC
00
70
70
70
70
70
70
70
70
70
70
70
70
70
ENDCHAR
STARTCHAR 00CF
ENCODING 207
SWIDTH 276 0
DWIDTH 5 0
BBX 6 17 0 0
BITMAP
08
DC
D8
00
70
70
70
70
70
70
70
70
70
70
70
70
70
ENDCHAR
STARTCHAR 00D0
ENCODING 208
SWIDTH 775 0
DWIDTH 14 0
BBX 13 13 0 0
BITMAP
3F80
3FE0
30F0
3070
3038
FE38
FE38
3038
3038
3070
30F0
3FE0
3F80
ENDCHAR
STARTCHAR 00D1
ENCODING 209
SWIDTH 775 0
DWIDTH 14 0
BBX 11 17 1 0
BITMAP
0C80
1F80
1300
0000
F060
F060
F860
FC60
FC60
EE60
E760
E760
E3E0
E1E0
E1E0
E0E0
E0E0
ENDCHAR
STARTCHAR 00D2
ENCODING 210
SWIDTH 830 0
DWIDTH 15 0
BBX 13 16 1 0
BITMAP
1C00
0E00
0000
0F80
3FE0
79F0
E070
E038
C038
C038
C038
E038
E070
79F0
3FE0
0F80
ENDCHAR
STARTCHAR 00D3
ENCODING 211
SWIDTH 830 0
DWIDTH 15 0
BBX 13 16 1 0
BITMAP
0380
0300
0000
0F80
3FE0
79F0
E070
E038
C038
C038
C038
E038
E070
79F0
3FE0
0F80
ENDCHAR
STARTCHAR 00D4
ENCODING 212
SWIDTH 830 0
DWIDTH 15 0
BBX 13 16 1 0
BITMAP
0700
0D80
1000
0F80
3FE0
79F0
E070
E038
C038
C038
C038
E038
E070
79F0
3FE0
0F80
ENDCHAR
STARTCHAR 00D5
ENCODING 213
SWIDTH 830 0
DWIDTH 15 0
BBX 13 16 1 0
BITMAP
0C80
1F80
1B80
0F80
3FE0
79F0
E070
E038
C038
C038
C038
E038
E070
79F0
3FE0
0F80
ENDCHAR
STARTCHAR 00D6
ENCODING 214
SWIDTH 830 0
DWIDTH 15 0
BBX 13 16 1 0
BITMAP
30C0
38E0
1040
0F80
3FE0
79F0
E070
E038
C038
C038
C038
E038
E070
79F0
3FE0
0F80
ENDCHAR
STARTCHAR 00D7
ENCODING 215
SWIDTH 553 0
DWIDTH 10 0
BBX 8 9 1 1
BITMAP
41
E3
76
3C
1C
3C
76
E3
41
ENDCHAR
STARTCHAR 00D8
ENCODING 216
SWIDTH 830 0
DWIDTH 15 0
BBX 13 15 1 -1
BITMAP
0020
0FB0
3FF0
79F0
E1F0
E1B8
C338
C738
CE38
FC38
F870
79F0
7FE0
EF80
4000
ENDCHAR
STARTCHAR 00D9
ENCODING 217
SWIDTH 720 0
DWIDTH 13 0
BBX 10 16 1 0
BITMAP
3800
0C00
0000
E0C0
E0C0
E0C0
E0C0
E0C0
E0C0
E0C0
E0C0
E0C0
E1C0
7BC0
7F80
1F00
ENDCHAR
STARTCHAR 00DA
ENCODING 218
SWIDTH 720 0
DWIDTH 13 0
BBX 10 16 1 0
BITMAP
0700
0C00
0000
E0C0
E0C0
E0C0
E0C0
E0C0
E0C0
E0C0
E0C0
E0C0
E1C0
7BC0
7F80
1F00
ENDCHAR
STARTCHAR 00DB
ENCODING 219
SWIDTH 720 0
DWIDTH 13 0
BBX 10 16 1 0
BITMAP
1E00
3B00
0000
E0C0
E0C0
E0C0
E0C0
E0C0
E0C0
E0C0
E0C0
E0C0
E1C0
7BC0
7F80
1F00
ENDCHAR
STARTCHAR 00DC
ENCODING 220
SWIDTH 720 0
DWIDTH 13 0
BBX 10 17 1 0
BITMAP
1100
3380
3300
0000
E0C0
E0C0
E0C0
E0C0
E0C0
E0C0
E0C0
E0C0
E0C0
E1C0
7BC0
7F80
1F00
ENDCHAR
STARTCHAR 00DD
ENCODING 221
SWIDTH 664 0
DWIDTH 12 0
BBX 11 16 0 0
BITMAP
0380
0600
0000
E060
70E0
31C0
39C0
1F80
1F00
0F00
0600
0600
0600
0600
0600
0600
ENDCHAR
STARTCHAR 00DE
ENCODING 222
SWIDTH 609 0
DWIDTH 11 0
BBX 9 13 1 0
BITMAP
E000
E000
FE00
FF80
E380
E180
E180
E380
FF80
FF00
E000
E000
E000
ENDCHAR
STARTCHAR 00DF
ENCODING 223
SWIDTH 609 0
DWIDTH 11 0
BBX 9 13 1 0
BITMAP
3E00
7F00
6380
E380
E300
EF00
EC00
EE00
EF80
E380
F980
FF80
EF00
ENDCHAR
STARTCHAR 00E0
ENCODING 224
SWIDTH 553 0
DWIDTH 10 0
BBX 8 13 1 0
BITMAP
70
30
18
00
3C
FE
C7
07
7F
E7
C7
FF
7F
ENDCHAR
STARTCHAR 00E1
ENCODING 225
SWIDTH 553 0
DWIDTH 10 0
BBX 8 13 1 0
BITMAP
0E
1C
18
00
3C
FE
C7
07
7F
E7
C7
FF
7F
ENDCHAR
STARTCHAR 00E2
ENCODING 226
SWIDTH 553 0
DWIDTH 10 0
BBX 8 12 1 0
BITMAP
38
6C
00
3C
FE
C7
07
7F
E7
C7
FF
7F
ENDCHAR
STARTCHAR 00E3
ENCODING 227
SWIDTH 553 0
DWIDTH 10 0
BBX 8 13 1 0
BITMAP
72
7E
4C
00
3C
FE
C7
07
7F
E7
C7
FF
7F
ENDCHAR
STARTCHAR 00E4
ENCODING 228
SWIDTH 553 0
DWIDTH 10 0
BBX 8 13 1 0
BITMAP
04
6E
66
00
3C
FE
C7
07
7F
E7
C7
FF
7F
ENDCHAR
STARTCHAR 00E5
ENCODING 229
SWIDTH 553 0
DWIDTH 10 0
BBX 8 14 1 0
BITMAP
38
2C
2C
38
00
3C
FE
C7
07
7F
E7
C7
FF
7F
ENDCHAR
STARTCHAR 00E6
ENCODING 230
SWIDTH 886 0
DWIDTH 16 0
BBX 14 9 1 0
BITMAP
3CF0
FFF8
C71C
0FFC
7FFC
C700
C71C
FFF8
78F0
ENDCHAR
STARTCHAR 00E7
ENCODING 231
SWIDTH 553 0
DWIDTH 10 0
BBX 8 13 1 -4
BITMAP
3C
7F
E7
C2
C0
C0
E3
7F
3E
18
1C
24
3C
ENDCHAR
STARTCHAR 00E8
ENCODING 232
SWIDTH 553 0
DWIDTH 10 0
BBX 8 13 1 0
BITMAP
70
30
18
00
3C
7E
C3
FF
FF
C0
E3
7F
3C
ENDCHAR
STARTCHAR 00E9
ENCODING 233
SWIDTH 553 0
DWIDTH 10 0
BBX 8 13 1 0
BITMAP
0E
0C
18
00
3C
7E
C3
FF
FF
C0
E3
7F
3C
ENDCHAR
STARTCHAR 00EA
ENCODING 234
SWIDTH 553 0
DWIDTH 10 0
BBX 8 12 1 0
BITMAP
3C
66
00
3C
7E
C3
FF
FF
C0
E3
7F
3C
ENDCHAR
STARTCHAR 00EB
ENCODING 235
SWIDTH 553 0
DWIDTH 10 0
BBX 8 13 1 0
BITMAP
20
66
66
00
3C
7E
C3
FF
FF
C0
E3
7F
3C
ENDCHAR
STARTCHAR 00EC
ENCODING 236
SWIDTH 276 0
DWIDTH 5 0
BBX 4 13 0 0
BITMAP
C0
E0
60
00
70
70
70
70
70
70
70
70
70
ENDCHAR
STARTCHAR 00ED
ENCODING 237
SWIDTH 276 0
DWIDTH 5 0
BBX 4 13 1 0
BITMAP
30
70
60
00
E0
E0
E0
E0
E0
E0
E0
E0
E0
ENDCHAR
STARTCHAR 00EE
ENCODING 238
SWIDTH 276 0
DWIDTH 5 0
BBX 5 13 0 0
BITMAP
70
F8
D8
00
70
70
70
70
70
70
70
70
70
ENDCHAR
STARTCHAR 00EF
ENCODING 239
SWIDTH 276 0
DWIDTH 5 0
BBX 5 12 0 0
BITMAP
D8
D8
00
70
70
70
70
70
70
70
70
70
ENDCHAR
STARTCHAR 00F0
ENCODING 240
SWIDTH 609 0
DWIDTH 11 0
BBX 9 14 1 0
BITMAP
3000
7B00
1F00
3E00
2700
3F00
7F80
E380
C380
C380
C380
E700
7F00
3C00
ENDCHAR
STARTCHAR 00F1
ENCODING 241
SWIDTH 609 0
DWIDTH 11 0
BBX 8 13 1 0
BITMAP
3B
7E
6E
00
FE
FF
E7
E3
E3
E3
E3
E3
E3
ENDCHAR
STARTCHAR 00F2
ENCODING 242
SWIDTH 609 0
DWIDTH 11 0
BBX 9 13 1 0
BITMAP
7000
3800
1800
0000
3C00
7F00
E700
C380
C180
C380
E700
7F00
3C00
ENDCHAR
STARTCHAR 00F3
ENCODING 243
SWIDTH 609 0
DWIDTH 11 0
BBX 9 13 1 0
BITMAP
0E00
0C00
1800
0000
3C00
7F00
E700
C380
C180
C380
E700
7F00
3C00
ENDCHAR
STARTCHAR 00F4
ENCODING 244
SWIDTH 609 0
DWIDTH 11 0
BBX 9 12 1 0
BITMAP
1C00
3600
0000
3C00
7F00
E700
C380
C180
C380
E700
7F00
3C00
ENDCHAR
STARTCHAR 00F5
ENCODING 245
SWIDTH 609 0
DWIDTH 11 0
BBX 9 13 1 0
BITMAP
3200
7E00
6E00
0000
3C00
7F00
E700
C380
C180
C380
E700
7F00
3C00
ENDCHAR
STARTCHAR 00F6
ENCODING 246
SWIDTH 609 0
DWIDTH 11 0
BBX 9 13 1 0
BITMAP
2000
7600
6600
0000
3C00
7F00
E700
C380
C180
C380
E700
7F00
3C00
ENDCHAR
STARTCHAR 00F7
ENCODING 247
SWIDTH 609 0
DWIDTH 11 0
BBX 9 9 1 1
BITMAP
1800
1C00
1800
0000
FF80
FF80
0000
1C00
1800
ENDCHAR
STARTCHAR 00F8
ENCODING 248
SWIDTH 609 0
DWIDTH 11 0
BBX 9 11 1 -1
BITMAP
0100
3D80
7F00
E700
CF80
D980
F380
F700
7F00
FC00
8000
ENDCHAR
STARTCHAR 00F9
ENCODING 249
SWIDTH 609 0
DWIDTH 11 0
BBX 8 13 1 0
BITMAP
30
38
18
00
E3
E3
E3
E3
E3
E3
E7
7F
3B
ENDCHAR
STARTCHAR 00FA
ENCODING 250
SWIDTH 609 0
DWIDTH 11 0
BBX 8 13 1 0
BITMAP
0E
0C
18
00
E3
E3
E3
E3
E3
E3
E7
7F
3B
ENDCHAR
STARTCHAR 00FB
ENCODING 251
SWIDTH 609 0
DWIDTH 11 0
BBX 8 13 1 0
BITMAP
1C
3C
66
00
E3
E3
E3
E3
E3
E3
E7
7F
3B
ENDCHAR
STARTCHAR 00FC
ENCODING 252
SWIDTH 609 0
DWIDTH 11 0
BBX 8 13 1 0
BITMAP
22
76
66
00
E3
E3
E3
E3
E3
E3
E7
7F
3B
ENDCHAR
STARTCHAR 00FD
ENCODING 253
SWIDTH 553 0
DWIDTH 10 0
BBX 10 17 0 -4
BITMAP
0700
0600
0C00
0000
E1C0
6180
7380
3300
3B00
1F00
1E00
0E00
0C00
1C00
1800
3800
3800
ENDCHAR
STARTCHAR 00FE
ENCODING 254
SWIDTH 609 0
DWIDTH 11 0
BBX 9 17 1 -4
BITMAP
E000
E000
E000
E000
FE00
FF80
F380
E180
E180
E180
F380
FF00
FE00
E000
E000
E000
E000
ENDCHAR
STARTCHAR 00FF
ENCODING 255
SWIDTH 553 0
DWIDTH 10 0
BBX 10 17 0 -4
BITMAP
1000
3300
3300
0000
E1C0
6180
7380
3300
3B00
1F00
1E00
0E00
0C00
1C00
1800
3800
3800
ENDCHAR
STARTCHAR 0131
ENCODING 305
SWIDTH 276 0
DWIDTH 5 0
BBX 3 9 1 0
BITMAP
E0
E0
E0
E0
E0
E0
E0
E0
E0
ENDCHAR
STARTCHAR 0141
ENCODING 321
SWIDTH 609 0
DWIDTH 11 0
BBX 10 13 0 0
BITMAP
3000
3000
3000
3000
3200
3E00
7C00
F000
B000
3000
3000
3FC0
3FC0
ENDCHAR
STARTCHAR 0142
ENCODING 322
SWIDTH 332 0
DWIDTH 6 0
BBX 6 13 0 0
BITMAP
30
30
30
30
30
3C
7C
F0
B0
30
30
30
30
ENDCHAR
STARTCHAR 0152
ENCODING 338
SWIDTH 1107 0
DWIDTH 20 0
BBX 18 13 1 0
BITMAP
0FBFC0
3FFFC0
78F800
E07800
E03800
C03FC0
C03FC0
C03800
E03800
E07800
78F800
3FFFC0
0FBFC0
ENDCHAR
STARTCHAR 0153
ENCODING 339
SWIDTH 941 0
DWIDTH 17 0
BBX 15 9 1 0
BITMAP
3C78
7FFC
E386
C3FE
C1FE
C380
E7C6
7FFE
3C78
ENDCHAR
STARTCHAR 0160
ENCODING 352
SWIDTH 609 0
DWIDTH 11 0
BBX 9 16 1 0
BITMAP
3700
1E00
0000
3E00
7F00
E380
E100
E000
FC00
7F00
0F80
0380
C180
E380
7F00
3E00
ENDCHAR
STARTCHAR 0161
ENCODING 353
SWIDTH 443 0
DWIDTH 8 0
BBX 7 12 1 0
BITMAP
EC
78
00
78
FC
CE
E0
FC
1E
CE
FC
78
ENDCHAR
STARTCHAR 0178
ENCODING 376
SWIDTH 664 0
DWIDTH 12 0
BBX 11 17 0 0
BITMAP
1080
1980
1980
0000
E060
70E0
31C0
39C0
1F80
1F00
0F00
0600
0600
0600
0600
0600
0600
ENDCHAR
STARTCHAR 017D
ENCODING 381
SWIDTH 664 0
DWIDTH 12 0
BBX 10 16 1 0
BITMAP
3F00
1E00
0000
FFC0
FFC0
03C0
0780
0700
0E00
1C00
3800
7800
7000
E000
FFC0
FFC0
ENDCHAR
STARTCHAR 017E
ENCODING 382
SWIDTH 498 0
DWIDTH 9 0
BBX 7 13 1 0
BITMAP
6C
7C
38
00
FE
FE
0E
1C
38
70
E0
FE
FE
ENDCHAR
STARTCHAR 0192
ENCODING 402
SWIDTH 498 0
DWIDTH 9 0
BBX 10 16 -1 -3
BITMAP
03C0
03C0
0700
0600
1F80
1F80
0E00
0E00
0C00
0C00
0C00
1C00
1C00
1800
F800
F000
ENDCHAR
STARTCHAR 02C6
ENCODING 710
SWIDTH 387 0
DWIDTH 7 0
BBX 5 3 1 10
BITMAP
70
F8
D8
ENDCHAR
STARTCHAR 02C7
ENCODING 711
SWIDTH 387 0
DWIDTH 7 0
BBX 6 3 1 10
BITMAP
CC
F8
70
ENDCHAR
STARTCHAR 02C9
ENCODING 713
SWIDTH 332 0
DWIDTH 6 0
BBX 6 2 0 10
BITMAP
FC
FC
ENDCHAR
STARTCHAR 02D8
ENCODING 728
SWIDTH 387 0
DWIDTH 7 0
BBX 5 3 1 10
BITMAP
88
F8
70
ENDCHAR
STARTCHAR 02D9
ENCODING 729
SWIDTH 166 0
DWIDTH 3 0
BBX 3 3 0 10
BITMAP
60
E0
60
ENDCHAR
STARTCHAR 02DA
ENCODING 730
SWIDTH 276 0
DWIDTH 5 0
BBX 4 4 1 10
BITMAP
E0
B0
B0
E0
ENDCHAR
STARTCHAR 02DB
ENCODING 731
SWIDTH 221 0
DWIDTH 4 0
BBX 4 4 0 -4
BITMAP
60
40
F0
70
ENDCHAR
STARTCHAR 02DC
ENCODING 732
SWIDTH 387 0
DWIDTH 7 0
BBX 7 3 0 10
BITMAP
76
FE
DC
ENDCHAR
STARTCHAR 02DD
ENCODING 733
SWIDTH 387 0
DWIDTH 7 0
BBX 5 3 1 10
BITMAP
D8
D8
B0
ENDCHAR
STARTCHAR 0394
ENCODING 916
SWIDTH 664 0
DWIDTH 12 0
BBX 12 13 0 0
BITMAP
0700
0F00
0F80
0F80
1D80
19C0
38C0
38C0
30E0
7060
7070
7FF0
FFF0
ENDCHAR
STARTCHAR 03A9
ENCODING 937
SWIDTH 775 0
DWIDTH 14 0
BBX 12 13 1 0
BITMAP
1F80
3FC0
79E0
E070
E070
C030
C030
E070
6070
79E0
1980
F9F0
F9F0
ENDCHAR
STARTCHAR 03BC
ENCODING 956
SWIDTH 609 0
DWIDTH 11 0
BBX 8 13 1 -4
BITMAP
E3
E3
E3
E3
E3
E3
E3
FF
FB
E0
E0
E0
E0
ENDCHAR
STARTCHAR 03C0
ENCODING 960
SWIDTH 664 0
DWIDTH 12 0
BBX 10 9 1 0
BITMAP
FFC0
FFC0
7300
7300
7300
7300
7300
73C0
71C0
ENDCHAR
STARTCHAR 2007
ENCODING 8199
SWIDTH 609 0
DWIDTH 11 0
BBX 0 0 0 0
BITMAP
ENDCHAR
STARTCHAR 2008
ENCODING 8200
SWIDTH 332 0
DWIDTH 6 0
BBX 0 0 0 0
BITMAP
ENDCHAR
STARTCHAR 200B
ENCODING 8203
SWIDTH 0 0
DWIDTH 0 0
BBX 0 0 0 0
BITMAP
ENDCHAR
STARTCHAR 2013
ENCODING 8211
SWIDTH 664 0
DWIDTH 12 0
BBX 9 2 1 4
BITMAP
FF80
FF80
ENDCHAR
STARTCHAR 2014
ENCODING 8212
SWIDTH 1107 0
DWIDTH 20 0
BBX 17 2 1 4
BITMAP
FFFF80
FFFF80
ENDCHAR
STARTCHAR 2018
ENCODING 8216
SWIDTH 221 0
DWIDTH 4 0
BBX 3 5 1 8
BITMAP
40
80
C0
E0
C0
ENDCHAR
STARTCHAR 2019
ENCODING 8217
SWIDTH 221 0
DWIDTH 4 0
BBX 3 5 1 8
BITMAP
C0
E0
E0
40
80
ENDCHAR
STARTCHAR 201A
ENCODING 8218
SWIDTH 221 0
DWIDTH 4 0
BBX 3 6 1 -3
BITMAP
C0
E0
E0
40
C0
80
ENDCHAR
STARTCHAR 201C
ENCODING 8220
SWIDTH 443 0
DWIDTH 8 0
BBX 6 5 1 8
BITMAP
44
88
D0
FC
CC
ENDCHAR
STARTCHAR 201D
ENCODING 8221
SWIDTH 443 0
DWIDTH 8 0
BBX 6 5 1 8
BITMAP
DC
FC
EC
4C
98
ENDCHAR
STARTCHAR 201E
ENCODING 8222
SWIDTH 443 0
DWIDTH 8 0
BBX 6 6 1 -3
BITMAP
C8
FC
FC
44
CC
98
ENDCHAR
STARTCHAR 2020
ENCODING 8224
SWIDTH 387 0
DWIDTH 7 0
BBX 6 10 1 3
BITMAP
30
30
30
FC
FC
30
30
30
30
30
ENDCHAR
STARTCHAR 2021
ENCODING 8225
SWIDTH 443 0
DWIDTH 8 0
BBX 6 13 1 0
BITMAP
30
30
30
FC
FC
30
30
30
FC
FC
30
30
30
ENDCHAR
STARTCHAR 2022
ENCODING 8226
SWIDTH 553 0
DWIDTH 10 0
BBX 8 7 1 2
BITMAP
3C
7E
FE
FF
FE
7E
3C
ENDCHAR
STARTCHAR 2026
ENCODING 8230
SWIDTH 941 0
DWIDTH 17 0
BBX 14 3 1 0
BITMAP
630C
E39C
630C
ENDCHAR
STARTCHAR 2030
ENCODING 8240
SWIDTH 1107 0
DWIDTH 20 0
BBX 18 12 1 0
BITMAP
707000
F86000
CCC000
CDC000
F98000
330000
063300
06FF80
0CCCC0
18CCC0
18FF80
307780
ENDCHAR
STARTCHAR 2039
ENCODING 8249
SWIDTH 332 0
DWIDTH 6 0
BBX 4 7 1 2
BITMAP
30
60
E0
C0
C0
60
30
ENDCHAR
STARTCHAR 203A
ENCODING 8250
SWIDTH 332 0
DWIDTH 6 0
BBX 4 7 1 2
BITMAP
C0
E0
60
30
60
E0
C0
ENDCHAR
STARTCHAR 2042
ENCODING 8258
SWIDTH 830 0
DWIDTH 15 0
BBX 13 13 1 0
BITMAP
0200
0200
1FC0
0700
0D80
0500
0000
3060
3060
FDF8
7070
78F0
48D0
ENDCHAR
STARTCHAR 2044
ENCODING 8260
SWIDTH 553 0
DWIDTH 10 0
BBX 10 12 0 0
BITMAP
00C0
0180
0180
0300
0600
0E00
0C00
1800
3800
3000
6000
C000
ENDCHAR
STARTCHAR 2051
ENCODING 8273
SWIDTH 443 0
DWIDTH 8 0
BBX 6 13 1 0
BITMAP
30
B4
FC
30
78
48
00
30
B4
FC
30
78
48
ENDCHAR
STARTCHAR 2070
ENCODING 8304
SWIDTH 443 0
DWIDTH 8 0
BBX 6 7 1 6
BITMAP
78
FC
CC
CC
CC
FC
78
ENDCHAR
STARTCHAR 2074
ENCODING 8308
SWIDTH 443 0
DWIDTH 8 0
BBX 6 7 1 6
BITMAP
18
38
78
D8
FC
18
18
ENDCHAR
STARTCHAR 2075
ENCODING 8309
SWIDTH 387 0
DWIDTH 7 0
BBX 5 7 1 6
BITMAP
78
78
F0
F8
08
D8
70
ENDCHAR
STARTCHAR 2076
ENCODING 8310
SWIDTH 443 0
DWIDTH 8 0
BBX 6 7 1 6
BITMAP
38
68
D0
F8
CC
F8
78
ENDCHAR
STARTCHAR 2077
ENCODING 8311
SWIDTH 387 0
DWIDTH 7 0
BBX 5 7 1 6
BITMAP
F8
F8
38
30
60
60
60
ENDCHAR
STARTCHAR 2078
ENCODING 8312
SWIDTH 443 0
DWIDTH 8 0
BBX 6 7 1 6
BITMAP
78
D8
C8
70
C8
DC
78
ENDCHAR
STARTCHAR 2079
ENCODING 8313
SWIDTH 443 0
DWIDTH 8 0
BBX 6 7 1 6
BITMAP
70
D8
CC
FC
28
38
F0
ENDCHAR
STARTCHAR 2080
ENCODING 8320
SWIDTH 443 0
DWIDTH 8 0
BBX 6 7 1 -1
BITMAP
78
CC
CC
CC
CC
78
20
ENDCHAR
STARTCHAR 2081
ENCODING 8321
SWIDTH 332 0
DWIDTH 6 0
BBX 3 7 1 -2
BITMAP
60
E0
E0
60
60
60
60
ENDCHAR
STARTCHAR 2082
ENCODING 8322
SWIDTH 387 0
DWIDTH 7 0
BBX 5 7 1 -2
BITMAP
70
D8
D8
38
70
F8
F8
ENDCHAR
STARTCHAR 2083
ENCODING 8323
SWIDTH 387 0
DWIDTH 7 0
BBX 5 7 1 -2
BITMAP
F8
18
30
38
08
D8
70
ENDCHAR
STARTCHAR 2084
ENCODING 8324
SWIDTH 443 0
DWIDTH 8 0
BBX 6 7 1 -2
BITMAP
18
38
78
D8
FC
18
18
ENDCHAR
STARTCHAR 2085
ENCODING 8325
SWIDTH 387 0
DWIDTH 7 0
BBX 5 7 1 -2
BITMAP
78
78
F0
F8
08
D8
70
ENDCHAR
STARTCHAR 2086
ENCODING 8326
SWIDTH 443 0
DWIDTH 8 0
BBX 6 7 1 -2
BITMAP
38
68
D0
F8
CC
F8
78
ENDCHAR
STARTCHAR 2087
ENCODING 8327
SWIDTH 387 0
DWIDTH 7 0
BBX 5 7 1 -2
BITMAP
F8
F8
18
30
30
60
60
ENDCHAR
STARTCHAR 2088
ENCODING 8328
SWIDTH 443 0
DWIDTH 8 0
BBX 6 7 1 -2
BITMAP
78
D8
C8
70
C8
DC
78
ENDCHAR
STARTCHAR 2089
ENCODING 8329
SWIDTH 443 0
DWIDTH 8 0
BBX 6 7 1 -2
BITMAP
70
D8
CC
FC
28
38
F0
ENDCHAR
STARTCHAR 20AC
ENCODING 8364
SWIDTH 664 0
DWIDTH 12 0
BBX 11 12 1 0
BITMAP
07C0
1FC0
1C40
3800
FF80
FF00
FF00
FE00
3800
1C40
1FE0
07C0
ENDCHAR
STARTCHAR 2113
ENCODING 8467
SWIDTH 443 0
DWIDTH 8 0
BBX 6 12 1 0
BITMAP
38
7C
6C
6C
6C
78
78
E0
E0
60
7C
3C
ENDCHAR
STARTCHAR 2122
ENCODING 8482
SWIDTH 886 0
DWIDTH 16 0
BBX 14 7 1 6
BITMAP
FB1C
FB9C
639C
63FC
63EC
636C
636C
ENDCHAR
STARTCHAR 2126
ENCODING 8486
SWIDTH 775 0
DWIDTH 14 0
BBX 12 13 1 0
BITMAP
1F80
3FC0
79E0
E070
E070
C030
C030
E070
6070
79E0
1980
F9F0
F9F0
ENDCHAR
STARTCHAR 2160
ENCODING 8544
SWIDTH 498 0
DWIDTH 9 0
BBX 7 12 1 0
BITMAP
FE
FE
38
38
38
38
38
38
38
38
FE
FE
ENDCHAR
STARTCHAR 2161
ENCODING 8545
SWIDTH 775 0
DWIDTH 14 0
BBX 12 12 1 0
BITMAP
FFF0
FFF0
39C0
39C0
39C0
39C0
39C0
39C0
39C0
39C0
FFF0
FFF0
ENDCHAR
STARTCHAR 2162
ENCODING 8546
SWIDTH 1052 0
DWIDTH 19 0
BBX 17 12 1 0
BITMAP
FFFF80
FFFF80
39CE00
39CE00
39CE00
39CE00
39CE00
39CE00
39CE00
39CE00
FFFF80
FFFF80
ENDCHAR
STARTCHAR 2163
ENCODING 8547
SWIDTH 1052 0
DWIDTH 19 0
BBX 17 12 1 0
BITMAP
FFFF80
FFFF80
3B8600
398E00
398C00
39CC00
39DC00
38DC00
38F800
38F800
FFFF80
FFFF80
ENDCHAR
STARTCHAR 2164
ENCODING 8548
SWIDTH 830 0
DWIDTH 15 0
BBX 13 12 1 0
BITMAP
FFF8
FFF8
30E0
38C0
38C0
19C0
1D80
1D80
0F80
0F80
FFF8
FFF8
ENDCHAR
STARTCHAR 2165
ENCODING 8549
SWIDTH 1052 0
DWIDTH 19 0
BBX 17 12 1 0
BITMAP
FFFF80
FFFF80
30EE00
38CE00
38CE00
19CE00
1DCE00
1D8E00
0F8E00
0F8E00
FFFF80
FFFF80
ENDCHAR
STARTCHAR 2166
ENCODING 8550
SWIDTH 1329 0
DWIDTH 24 0
BBX 22 12 1 0
BITMAP
FFFFFC
FFFFFC
30EE70
38CE70
38CE70
19CE70
1DCE70
1D8E70
0F8E70
0F8E70
FFFFFC
FFFFFC
ENDCHAR
STARTCHAR 2167
ENCODING 8551
SWIDTH 1606 0
DWIDTH 29 0
BBX 27 12 1 0
BITMAP
FFFFFFE0
FFFFFFE0
30EE7380
38CE7380
38CE7380
19CE7380
1D8E7380
1D8E7380
0F8E7380
0F8E7380
FFFFFFE0
FFFFFFE0
ENDCHAR
STARTCHAR 2168
ENCODING 8552
SWIDTH 1052 0
DWIDTH 19 0
BBX 17 12 1 0
BITMAP
FFFF80
FFFF80
3B8E00
39DC00
38F800
38F000
387000
38F800
39DC00
3B8C00
FFFF80
FFFF80
ENDCHAR
STARTCHAR 2169
ENCODING 8553
SWIDTH 775 0
DWIDTH 14 0
BBX 12 12 1 0
BITMAP
FFF0
FFF0
39C0
1D80
1F80
0F00
0F00
1F80
1F80
39C0
FFF0
FFF0
ENDCHAR
STARTCHAR 216C
ENCODING 8556
SWIDTH 664 0
DWIDTH 12 0
BBX 10 12 1 0
BITMAP
FE00
FE00
3000
3000
3000
3000
3000
30C0
30C0
30C0
FFC0
FFC0
ENDCHAR
STARTCHAR 216D
ENCODING 8557
SWIDTH 720 0
DWIDTH 13 0
BBX 11 12 1 0
BITMAP
1F60
3FE0
70E0
E060
C000
C000
C000
C060
E060
71E0
3FE0
1F60
ENDCHAR
STARTCHAR 216E
ENCODING 8558
SWIDTH 720 0
DWIDTH 13 0
BBX 12 12 1 0
BITMAP
FF00
FFC0
39E0
38E0
3860
3870
3870
3860
38E0
39E0
FFC0
FF00
ENDCHAR
STARTCHAR 216F
ENCODING 8559
SWIDTH 1052 0
DWIDTH 19 0
BBX 17 12 1 0
BITMAP
FC1F80
FC1F80
3C1E00
3E3E00
363600
367600
376600
336600
33E600
31C600
FDDF80
FDDF80
ENDCHAR
STARTCHAR 2190
ENCODING 8592
SWIDTH 1052 0
DWIDTH 19 0
BBX 18 8 0 1
BITMAP
080000
180000
380000
FFFFC0
FFFFC0
380000
180000
080000
ENDCHAR
STARTCHAR 2191
ENCODING 8593
SWIDTH 498 0
DWIDTH 9 0
BBX 8 17 1 -3
BITMAP
10
38
3C
7E
FF
18
18
18
18
18
18
18
18
18
18
18
18
ENDCHAR
STARTCHAR 2192
ENCODING 8594
SWIDTH 1107 0
DWIDTH 20 0
BBX 18 9 0 1
BITMAP
000400
000200
000300
000380
FFFFC0
FFFFC0
000380
000300
000400
ENDCHAR
STARTCHAR 2193
ENCODING 8595
SWIDTH 498 0
DWIDTH 9 0
BBX 8 17 0 -3
BITMAP
18
18
18
18
18
18
18
18
18
18
18
18
FF
7E
3C
18
08
ENDCHAR
STARTCHAR 2196
ENCODING 8598
SWIDTH 886 0
DWIDTH 16 0
BBX 13 13 1 0
BITMAP
FC00
F800
F000
F800
DC00
8E00
0700
0380
01C0
00E0
0070
0038
0010
ENDCHAR
STARTCHAR 2197
ENCODING 8599
SWIDTH 775 0
DWIDTH 14 0
BBX 13 13 -1 0
BITMAP
00F8
0078
0078
00F8
01D8
0388
0700
0E00
1C00
3800
7000
E000
4000
ENDCHAR
STARTCHAR 2198
ENCODING 8600
SWIDTH 886 0
DWIDTH 16 0
BBX 13 13 1 0
BITMAP
4000
E000
7000
3800
1C00
0E00
0700
0388
01D8
00F8
0078
00F8
01F8
ENDCHAR
STARTCHAR 2199
ENCODING 8601
SWIDTH 775 0
DWIDTH 14 0
BBX 13 13 1 0
BITMAP
0010
0038
0070
00E0
01C0
0380
0700
8E00
9C00
F800
F000
F000
F800
ENDCHAR
STARTCHAR 21A9
ENCODING 8617
SWIDTH 886 0
DWIDTH 16 0
BBX 15 11 0 1
BITMAP
01F8
01FC
000E
1006
3006
700E
FFFC
FFF8
7000
1000
1000
ENDCHAR
STARTCHAR 21B0
ENCODING 8624
SWIDTH 830 0
DWIDTH 15 0
BBX 12 13 1 0
BITMAP
1000
1000
3000
FFF0
FFF0
7030
1030
1030
0030
0030
0030
0030
0030
ENDCHAR
STARTCHAR 21B1
ENCODING 8625
SWIDTH 775 0
DWIDTH 14 0
BBX 12 13 1 0
BITMAP
0100
0080
00E0
FFF0
FFF0
C0E0
C080
C100
C000
C000
C000
C000
C000
ENDCHAR
STARTCHAR 21B2
ENCODING 8626
SWIDTH 775 0
DWIDTH 14 0
BBX 13 13 0 0
BITMAP
0038
0038
0038
0038
0038
0838
1838
7838
FFF8
FFF8
3800
1800
0800
ENDCHAR
STARTCHAR 21B3
ENCODING 8627
SWIDTH 830 0
DWIDTH 15 0
BBX 13 13 1 0
BITMAP
C000
C000
C000
C000
C000
C080
C0C0
C0E0
FFF8
FFF0
00E0
00C0
0080
ENDCHAR
STARTCHAR 21B4
ENCODING 8628
SWIDTH 775 0
DWIDTH 14 0
BBX 13 13 1 0
BITMAP
FFC0
FFC0
00C0
00C0
00C0
00C0
00C0
00C0
07F8
03F0
01F0
00E0
0040
ENDCHAR
STARTCHAR 21C6
ENCODING 8646
SWIDTH 1163 0
DWIDTH 21 0
BBX 18 15 2 -1
BITMAP
100000
300000
700000
FFFFC0
FFFFC0
700000
300000
100400
000600
000700
FFFF80
FFFFC0
000700
000600
000400
ENDCHAR
STARTCHAR 2202
ENCODING 8706
SWIDTH 609 0
DWIDTH 11 0
BBX 9 13 1 0
BITMAP
7C00
FF00
4700
0380
0180
3D80
7F80
E180
C180
C180
E380
7F00
3E00
ENDCHAR
STARTCHAR 2206
ENCODING 8710
SWIDTH 664 0
DWIDTH 12 0
BBX 12 13 0 0
BITMAP
0700
0F00
0F80
0F80
1D80
19C0
38C0
38C0
30E0
7060
7070
7FF0
FFF0
ENDCHAR
STARTCHAR 220F
ENCODING 8719
SWIDTH 664 0
DWIDTH 12 0
BBX 10 13 1 0
BITMAP
FFC0
FFC0
E1C0
E1C0
E1C0
E1C0
E1C0
E1C0
E1C0
E1C0
E1C0
E1C0
E1C0
ENDCHAR
STARTCHAR 2211
ENCODING 8721
SWIDTH 553 0
DWIDTH 10 0
BBX 9 13 1 0
BITMAP
FF80
FF80
E000
7000
3800
1E00
0F00
1C00
3800
7000
E000
FF80
FF80
ENDCHAR
STARTCHAR 2212
ENCODING 8722
SWIDTH 553 0
DWIDTH 10 0
BBX 8 2 1 4
BITMAP
FF
FF
ENDCHAR
STARTCHAR 2215
ENCODING 8725
SWIDTH 443 0
DWIDTH 8 0
BBX 8 12 0 0
BITMAP
03
06
06
0C
0C
18
18
30
30
60
60
C0
ENDCHAR
STARTCHAR 2219
ENCODING 8729
SWIDTH 276 0
DWIDTH 5 0
BBX 3 3 1 4
BITMAP
E0
E0
E0
ENDCHAR
STARTCHAR 221A
ENCODING 8730
SWIDTH 720 0
DWIDTH 13 0
BBX 12 16 1 0
BITMAP
00F0
00F0
01C0
0180
0180
0380
C300
C300
E700
6600
6600
7E00
3C00
3C00
3C00
1800
ENDCHAR
STARTCHAR 221E
ENCODING 8734
SWIDTH 830 0
DWIDTH 15 0
BBX 13 7 1 2
BITMAP
78F0
FDF8
CF98
C718
CF98
FDF8
78F0
ENDCHAR
STARTCHAR 222B
ENCODING 8747
SWIDTH 332 0
DWIDTH 6 0
BBX 6 17 0 -4
BITMAP
1C
3C
38
30
30
30
30
30
30
30
30
30
30
30
30
F0
E0
ENDCHAR
STARTCHAR 2248
ENCODING 8776
SWIDTH 609 0
DWIDTH 11 0
BBX 9 7 1 2
BITMAP
7000
F800
8F80
0700
7000
FF80
DF00
ENDCHAR
STARTCHAR 2260
ENCODING 8800
SWIDTH 609 0
DWIDTH 11 0
BBX 9 9 1 1
BITMAP
0300
0700
FF80
FF80
1C00
FF80
FF80
6000
6000
ENDCHAR
STARTCHAR 2264
ENCODING 8804
SWIDTH 553 0
DWIDTH 10 0
BBX 8 9 1 1
BITMAP
03
1F
FC
F0
7E
0F
00
FF
FF
ENDCHAR
STARTCHAR 2265
ENCODING 8805
SWIDTH 553 0
DWIDTH 10 0
BBX 8 9 1 1
BITMAP
C0
F8
3F
0F
7E
F0
00
FF
FF
ENDCHAR
STARTCHAR 22C5
ENCODING 8901
SWIDTH 276 0
DWIDTH 5 0
BBX 3 3 1 4
BITMAP
E0
E0
E0
ENDCHAR
STARTCHAR 24C5
ENCODING 9413
SWIDTH 830 0
DWIDTH 15 0
BBX 13 13 1 0
BITMAP
0F80
3DE0
6030
CF90
CD98
8CD8
8F98
8C18
CC18
4C30
6070
39E0
0F80
ENDCHAR
STARTCHAR 25A0
ENCODING 9632
SWIDTH 886 0
DWIDTH 16 0
BBX 13 13 2 0
BITMAP
FFF8
FFF8
FFF8
FFF8
FFF8
FFF8
FFF8
FFF8
FFF8
FFF8
FFF8
FFF8
FFF8
ENDCHAR
STARTCHAR 25A1
ENCODING 9633
SWIDTH 886 0
DWIDTH 16 0
BBX 13 13 2 0
BITMAP
FFF8
FFF8
C038
C038
C038
C038
C038
C038
C038
C038
C038
FFF8
FFF8
ENDCHAR
STARTCHAR 25B2
ENCODING 9650
SWIDTH 830 0
DWIDTH 15 0
BBX 15 13 0 0
BITMAP
0100
0100
0380
03C0
07C0
0FE0
0FE0
1FF0
1FF8
3FF8
7FFC
7FFC
FFFE
ENDCHAR
STARTCHAR 25B3
ENCODING 9651
SWIDTH 830 0
DWIDTH 15 0
BBX 15 13 0 0
BITMAP
0100
0100
0380
03C0
06C0
0EE0
0C60
1C30
1838
3018
701C
7FFC
FFFE
ENDCHAR
STARTCHAR 25CA
ENCODING 9674
SWIDTH 609 0
DWIDTH 11 0
BBX 10 13 1 0
BITMAP
1C00
3E00
3E00
7700
6300
E380
C1C0
E380
6300
7700
3E00
3E00
1C00
ENDCHAR
STARTCHAR 25CB
ENCODING 9675
SWIDTH 830 0
DWIDTH 15 0
BBX 13 13 1 0
BITMAP
0F80
3FE0
70F0
E030
C038
C018
C018
C018
C038
E030
70F0
3FE0
0F80
ENDCHAR
STARTCHAR 25CF
ENCODING 9679
SWIDTH 830 0
DWIDTH 15 0
BBX 13 13 1 0
BITMAP
0F80
3FE0
7FF0
FFF0
FFF8
FFF8
FFF8
FFF8
FFF8
FFF0
7FF0
3FE0
0F80
ENDCHAR
STARTCHAR 262E
ENCODING 9774
SWIDTH 830 0
DWIDTH 15 0
BBX 13 13 1 0
BITMAP
0F80
3FE0
7670
E630
C618
C618
CF98
DFD8
FEF8
E670
7670
3FE0
0F80
ENDCHAR
STARTCHAR 2713
ENCODING 10003
SWIDTH 941 0
DWIDTH 17 0
BBX 17 13 0 0
BITMAP
000100
000380
000700
000E00
001C00
003800
407000
E0E000
71C000
3B8000
1F0000
0E0000
040000
ENDCHAR
STARTCHAR 2715
ENCODING 10005
SWIDTH 775 0
DWIDTH 14 0
BBX 13 13 0 0
BITMAP
4010
E038
7070
38E0
1DC0
0F80
0700
0F80
1DC0
38E0
7070
E038
4010
ENDCHAR
STARTCHAR 2780
ENCODING 10112
SWIDTH 830 0
DWIDTH 15 0
BBX 13 13 1 0
BITMAP
0F80
3DE0
6030
4310
C718
8F18
8308
8318
C318
4310
6030
39E0
0F80
ENDCHAR
STARTCHAR 2781
ENCODING 10113
SWIDTH 830 0
DWIDTH 15 0
BBX 13 13 1 0
BITMAP
0F80
3DE0
6030
4710
CF98
8998
8708
8E18
CF98
CF90
6030
39E0
0F80
ENDCHAR
STARTCHAR 2782
ENCODING 10114
SWIDTH 830 0
DWIDTH 15 0
BBX 13 13 1 0
BITMAP
0F80
3DE0
6070
4030
CF98
8318
8788
8198
CF98
C710
6030
39E0
0F80
ENDCHAR
STARTCHAR 2783
ENCODING 10115
SWIDTH 830 0
DWIDTH 15 0
BBX 13 13 1 0
BITMAP
0F80
3DE0
6030
4310
C718
8F18
9B08
9F98
C318
C310
6030
39E0
0F80
ENDCHAR
STARTCHAR 2784
ENCODING 10116
SWIDTH 830 0
DWIDTH 15 0
BBX 13 13 1 0
BITMAP
0F80
3DE0
6030
4030
CF98
8C18
8F88
8198
CF98
C710
6030
39E0
0F80
ENDCHAR
STARTCHAR 2785
ENCODING 10117
SWIDTH 830 0
DWIDTH 15 0
BBX 13 13 1 0
BITMAP
0F80
3DE0
6030
C790
CE18
8B18
9F88
9998
CD98
C710
6030
39E0
0F80
ENDCHAR
STARTCHAR 2786
ENCODING 10118
SWIDTH 830 0
DWIDTH 15 0
BBX 13 13 1 0
BITMAP
0F80
3DE0
6030
4F90
CF98
8398
8308
8618
C618
C610
6030
39E0
0F80
ENDCHAR
STARTCHAR 2787
ENCODING 10119
SWIDTH 830 0
DWIDTH 15 0
BBX 13 13 1 0
BITMAP
0F80
3DE0
6030
C710
CD98
8D98
8708
8998
CD98
CF10
6030
39E0
0F80
ENDCHAR
STARTCHAR 2788
ENCODING 10120
SWIDTH 830 0
DWIDTH 15 0
BBX 13 13 1 0
BITMAP
0F80
3DE0
6030
C710
CD98
8998
8F88
8798
CB98
CF10
6030
39E0
0F80
ENDCHAR
STARTCHAR E000
ENCODING 57344
SWIDTH 720 0
DWIDTH 13 0
BBX 13 13 0 0
BITMAP
1FF8
1FF8
1800
1800
1800
1800
1800
1800
FF00
7E00
3C00
1800
1000
ENDCHAR
STARTCHAR E001
ENCODING 57345
SWIDTH 1107 0
DWIDTH 20 0
BBX 18 13 1 0
BITMAP
01F000
07F000
0E0200
1C0700
180780
380FC0
301FC0
FE0300
7C0600
380E00
101C00
03F800
03F000
ENDCHAR
STARTCHAR E002
ENCODING 57346
SWIDTH 941 0
DWIDTH 17 0
BBX 16 13 1 0
BITMAP
0F80
3F80
7880
6018
C03C
C07E
C0FF
C018
C018
6030
7070
3FE0
0F80
ENDCHAR
STARTCHAR FB00
ENCODING 64256
SWIDTH 664 0
DWIDTH 12 0
BBX 12 13 0 0
BITMAP
1C70
3CF0
30C0
30C0
FFF0
FFF0
30C0
30C0
30C0
30C0
30C0
30C0
30C0
ENDCHAR
STARTCHAR FB01
ENCODING 64257
SWIDTH 609 0
DWIDTH 11 0
BBX 10 13 0 0
BITMAP
1CC0
3DC0
30C0
3000
FFC0
FFC0
30C0
30C0
30C0
30C0
30C0
30C0
30C0
ENDCHAR
STARTCHAR FB02
ENCODING 64258
SWIDTH 609 0
DWIDTH 11 0
BBX 10 13 0 0
BITMAP
1CC0
3CC0
30C0
30C0
FFC0
FFC0
30C0
30C0
30C0
30C0
30C0
30C0
30C0
ENDCHAR
STARTCHAR FB03
ENCODING 64259
SWIDTH 941 0
DWIDTH 17 0
BBX 16 13 0 0
BITMAP
1C73
3CF7
30C3
30C0
FFFF
FFFF
30C3
30C3
30C3
30C3
30C3
30C3
30C3
ENDCHAR
STARTCHAR FB04
ENCODING 64260
SWIDTH 941 0
DWIDTH 17 0
BBX 16 13 0 0
BITMAP
1C73
3CF3
30C3
30C3
FFFF
FFFF
30C3
30C3
30C3
30C3
30C3
30C3
30C3
ENDCHAR
STARTCHAR FEFF
ENCODING 65279
SWIDTH 0 0
DWIDTH 0 0
BBX 0 0 0 0
BITMAP
ENDCHAR
ENDFONT
